HIERARCHY
ROOT Hips
{
    OFFSET   0.000000   0.000000   0.000000
    CHANNELS 6 Xposition Yposition Zposition Zrotation Xrotation Yrotation
    JOINT Chest
    {
        OFFSET   0.000000   8.007240   0.000000
        CHANNELS 3 Zrotation Xrotation Yrotation
        JOINT Chest2
        {
            OFFSET   0.000000  22.077100   0.000000
            CHANNELS 3 Zrotation Xrotation Yrotation
            JOINT Neck
            {
                OFFSET   0.000000  23.254800   0.000000
                CHANNELS 3 Zrotation Xrotation Yrotation
                JOINT Head
                {
                    OFFSET   0.000000  14.370000   1.956600
                    CHANNELS 3 Zrotation Xrotation Yrotation
                    End Site
                    {
                        OFFSET   0.000000  19.566000   0.000000
                    }
                }
            }
            JOINT LeftCollar
            {
                OFFSET   3.911900  19.017000  -0.467064
                CHANNELS 3 Zrotation Xrotation Yrotation
                JOINT LeftShoulder
                {
                    OFFSET  10.383700   0.000000   0.000000
                    CHANNELS 3 Zrotation Xrotation Yrotation
                    JOINT LeftElbow
                    {
                        OFFSET  26.662100   0.001476   0.000517
                        CHANNELS 3 Zrotation Xrotation Yrotation
                        JOINT LeftWrist
                        {
                            OFFSET  28.869000  -0.000025  -0.000106
                            CHANNELS 3 Zrotation Xrotation Yrotation
                            JOINT LeftFinger0
                            {
                                OFFSET   2.044660  -2.323460   3.252850
                                CHANNELS 3 Zrotation Xrotation Yrotation
                                JOINT LeftFinger01
                                {
                                    OFFSET   3.088130   0.000000   0.000000
                                    CHANNELS 3 Zrotation Xrotation Yrotation
                                    JOINT LeftFinger02
                                    {
                                        OFFSET   2.639460   0.000000   0.000000
                                        CHANNELS 3 Zrotation Xrotation Yrotation
                                        End Site
                                        {
                                            OFFSET   2.582190   0.000000   0.000000
                                        }
                                    }
                                }
                            }
                            JOINT LeftFinger1
                            {
                                OFFSET   8.364480   0.000000   3.252850
                                CHANNELS 3 Zrotation Xrotation Yrotation
                                JOINT LeftFinger11
                                {
                                    OFFSET   4.646930   0.000000   0.000000
                                    CHANNELS 3 Zrotation Xrotation Yrotation
                                    JOINT LeftFinger12
                                    {
                                        OFFSET   2.323460   0.000000   0.000000
                                        CHANNELS 3 Zrotation Xrotation Yrotation
                                        End Site
                                        {
                                            OFFSET   2.273050   0.000000   0.000000
                                        }
                                    }
                                }
                            }
                            JOINT LeftFinger2
                            {
                                OFFSET   8.364490   0.000015   1.078090
                                CHANNELS 3 Zrotation Xrotation Yrotation
                                JOINT LeftFinger21
                                {
                                    OFFSET   5.111620   0.000000   0.000000
                                    CHANNELS 3 Zrotation Xrotation Yrotation
                                    JOINT LeftFinger22
                                    {
                                        OFFSET   2.788160   0.000016   0.000000
                                        CHANNELS 3 Zrotation Xrotation Yrotation
                                        End Site
                                        {
                                            OFFSET   2.727660   0.000000   0.000000
                                        }
                                    }
                                }
                            }
                            JOINT LeftFinger3
                            {
                                OFFSET   7.899780   0.000017  -1.078090
                                CHANNELS 3 Zrotation Xrotation Yrotation
                                JOINT LeftFinger31
                                {
                                    OFFSET   4.646930   0.000000   0.000000
                                    CHANNELS 3 Zrotation Xrotation Yrotation
                                    JOINT LeftFinger32
                                    {
                                        OFFSET   2.323470   0.000000   0.000000
                                        CHANNELS 3 Zrotation Xrotation Yrotation
                                        End Site
                                        {
                                            OFFSET   2.273050   0.000000   0.000000
                                        }
                                    }
                                }
                            }
                            JOINT LeftFinger4
                            {
                                OFFSET   7.435090   0.000000  -3.252850
                                CHANNELS 3 Zrotation Xrotation Yrotation
                                JOINT LeftFinger41
                                {
                                    OFFSET   3.717550   0.000000   0.000000
                                    CHANNELS 3 Zrotation Xrotation Yrotation
                                    JOINT LeftFinger42
                                    {
                                        OFFSET   1.858770   0.000000   0.000000
                                        CHANNELS 3 Zrotation Xrotation Yrotation
                                        End Site
                                        {
                                            OFFSET   1.818440   0.000000   0.000000
                                        }
                                    }
                                }
                            }
                        }
                    }
                }
            }
            JOINT RightCollar
            {
                OFFSET  -3.911900  19.017000  -0.467063
                CHANNELS 3 Zrotation Xrotation Yrotation
                JOINT RightShoulder
                {
                    OFFSET -10.383700   0.000019   0.000000
                    CHANNELS 3 Zrotation Xrotation Yrotation
                    JOINT RightElbow
                    {
                        OFFSET -26.662100   0.001175   0.000102
                        CHANNELS 3 Zrotation Xrotation Yrotation
                        JOINT RightWrist
                        {
                            OFFSET -28.869000   0.000016  -0.000079
                            CHANNELS 3 Zrotation Xrotation Yrotation
                            JOINT RightFinger0
                            {
                                OFFSET  -2.044660  -2.323490   3.252850
                                CHANNELS 3 Zrotation Xrotation Yrotation
                                JOINT RightFinger01
                                {
                                    OFFSET  -3.088140   0.000000   0.000000
                                    CHANNELS 3 Zrotation Xrotation Yrotation
                                    JOINT RightFinger02
                                    {
                                        OFFSET  -2.639460   0.000000   0.000000
                                        CHANNELS 3 Zrotation Xrotation Yrotation
                                        End Site
                                        {
                                            OFFSET  -2.582190   0.000000   0.000000
                                        }
                                    }
                                }
                            }
                            JOINT RightFinger1
                            {
                                OFFSET  -8.364480   0.000000   3.252850
                                CHANNELS 3 Zrotation Xrotation Yrotation
                                JOINT RightFinger11
                                {
                                    OFFSET  -4.646930   0.000000   0.000000
                                    CHANNELS 3 Zrotation Xrotation Yrotation
                                    JOINT RightFinger12
                                    {
                                        OFFSET  -2.323470   0.000000   0.000000
                                        CHANNELS 3 Zrotation Xrotation Yrotation
                                        End Site
                                        {
                                            OFFSET  -2.273050   0.000000   0.000000
                                        }
                                    }
                                }
                            }
                            JOINT RightFinger2
                            {
                                OFFSET  -8.364480   0.000000   1.078090
                                CHANNELS 3 Zrotation Xrotation Yrotation
                                JOINT RightFinger21
                                {
                                    OFFSET  -5.111620   0.000000   0.000000
                                    CHANNELS 3 Zrotation Xrotation Yrotation
                                    JOINT RightFinger22
                                    {
                                        OFFSET  -2.788160   0.000000   0.000000
                                        CHANNELS 3 Zrotation Xrotation Yrotation
                                        End Site
                                        {
                                            OFFSET  -2.727660   0.000000   0.000000
                                        }
                                    }
                                }
                            }
                            JOINT RightFinger3
                            {
                                OFFSET  -7.899780   0.000000  -1.078090
                                CHANNELS 3 Zrotation Xrotation Yrotation
                                JOINT RightFinger31
                                {
                                    OFFSET  -4.646930   0.000000   0.000000
                                    CHANNELS 3 Zrotation Xrotation Yrotation
                                    JOINT RightFinger32
                                    {
                                        OFFSET  -2.323470   0.000000   0.000000
                                        CHANNELS 3 Zrotation Xrotation Yrotation
                                        End Site
                                        {
                                            OFFSET  -2.273050   0.000000   0.000000
                                        }
                                    }
                                }
                            }
                            JOINT RightFinger4
                            {
                                OFFSET  -7.435090   0.000000  -3.252850
                                CHANNELS 3 Zrotation Xrotation Yrotation
                                JOINT RightFinger41
                                {
                                    OFFSET  -3.717550   0.000000   0.000000
                                    CHANNELS 3 Zrotation Xrotation Yrotation
                                    JOINT RightFinger42
                                    {
                                        OFFSET  -1.858770   0.000000   0.000000
                                        CHANNELS 3 Zrotation Xrotation Yrotation
                                        End Site
                                        {
                                            OFFSET  -1.818440   0.000000   0.000000
                                        }
                                    }
                                }
                            }
                        }
                    }
                }
            }
        }
    }
    JOINT LeftHip
    {
        OFFSET   9.783040   0.000000   0.000000
        CHANNELS 3 Zrotation Xrotation Yrotation
        JOINT LeftKnee
        {
            OFFSET   0.000032 -41.789100  -0.002222
            CHANNELS 3 Zrotation Xrotation Yrotation
            JOINT LeftAnkle
            {
                OFFSET   0.000087 -41.133200  -0.000135
                CHANNELS 3 Zrotation Xrotation Yrotation
                JOINT LeftToe
                {
                    OFFSET   0.000000  -6.358960  14.674500
                    CHANNELS 3 Zrotation Xrotation Yrotation
                    End Site
                    {
                        OFFSET   0.000000   0.000000   3.913200
                    }
                }
            }
        }
    }
    JOINT RightHip
    {
        OFFSET  -9.783040   0.000000   0.000000
        CHANNELS 3 Zrotation Xrotation Yrotation
        JOINT RightKnee
        {
            OFFSET   0.000047 -41.789100  -0.000896
            CHANNELS 3 Zrotation Xrotation Yrotation
            JOINT RightAnkle
            {
                OFFSET  -0.000117 -41.133300  -0.000248
                CHANNELS 3 Zrotation Xrotation Yrotation
                JOINT RightToe
                {
                    OFFSET   0.000000  -6.358970  14.674500
                    CHANNELS 3 Zrotation Xrotation Yrotation
                    End Site
                    {
                        OFFSET   0.000000   0.000000   3.913200
                    }
                }
            }
        }
    }
}
MOTION
Frames: 4
Frame Time:   0.016667
 -1.731740  89.546300   0.593586  -2.573920  -3.850320   1.930870   1.811020   4.050730  -1.254650   3.724650   8.058640  -2.647230  -0.086556  -0.350986  -0.000332  -0.134466  -0.703914   7.876490  -8.455910   3.406780  -1.175070 -68.797700  14.044100  -8.821890  -3.110110 -12.986500  -9.765600   2.112000  -4.936820   8.760880  43.823700  30.325200 -66.339800 -19.934800   0.003101   0.005503  -4.966100   0.001530  -0.002669 -30.633700   5.226380  -8.744370 -25.390900   0.001466   0.006103 -17.773700   0.001002  -0.000282 -27.772100   1.109820  -2.105570 -30.799800   0.001144   0.000399 -20.512900  -0.011179  -0.001885 -27.285400  -2.313720   4.475390 -28.606600  -0.002379  -0.004343 -19.058100  -0.002396  -0.002694 -27.067500  -2.361210   4.595350 -40.744000  -0.001241  -0.011144 -27.135500  -0.003270  -0.004993   7.201420   0.142505  11.747600  68.122700   5.035030   1.540550   0.356469 -11.399700   7.916320 -10.490000 -11.950400   5.496690 -48.973500  39.339700  80.151300  16.216700   0.003499  -0.008465   3.108350   0.005007  -0.005758  32.056000   8.034210  12.581900  26.952000   0.004877  -0.001863  18.866400  -0.001230   0.002499  28.283900   4.207400   7.764040  37.009100   0.006785   0.002816  24.648100   0.002603  -0.007735  28.639500   1.485780   2.719120  38.449200  -0.000998   0.001157  25.607200  -0.007118   0.003857  36.643100  -0.164928  -0.219046  54.965000  -0.004288   0.011191  36.606700   0.001486   0.004138   3.241800   7.434780   4.930430   0.816596   0.229497   7.812060  -1.647130  -3.313030  -0.199239   0.000000   0.000000  -0.000000   1.755920   2.180890  -4.815200   1.682880   4.225820  -6.356760  -3.751070  -1.866910  -1.818780  -0.000000   0.000000   0.000000
 -1.731740  89.546300   0.580889  -2.572800  -3.864370   1.940460   1.811000   4.058170  -1.250200   3.724520   8.073650  -2.638590  -0.085093  -0.351223  -0.000314  -0.132971  -0.703898   7.885020  -8.451490   3.406660  -1.161620 -68.810100  14.007300  -8.799250  -3.124500 -12.897100  -9.949370   2.148420  -4.956210   8.734480  43.829200  30.322900 -66.323700 -19.934500   0.003086   0.005502  -4.966100   0.001527  -0.002674 -30.620700   5.220740  -8.741130 -25.380900   0.001466   0.006101 -17.766700   0.001000  -0.000282 -27.772100   1.109820  -2.105570 -30.797800   0.001147   0.000397 -20.511400  -0.011182  -0.001890 -27.285500  -2.313720   4.475390 -28.608000  -0.002385  -0.004352 -19.056900  -0.002393  -0.002682 -27.094100  -2.361210   4.595350 -40.783600  -0.001238  -0.011143 -27.161900  -0.003268  -0.004973   7.201260   0.142561  11.755700  68.108700   5.065990   1.563770   0.345948 -11.393800   7.931370 -10.491900 -11.975500   5.511540 -48.959100  39.321500  80.123400  16.213700   0.003483  -0.008465   3.106840   0.005008  -0.005756  32.054900   8.036480  12.586200  26.952000   0.004882  -0.001858  18.866400  -0.001225   0.002502  28.283200   4.209130   7.767340  37.002600   0.006782   0.002816  24.643800   0.002607  -0.007736  28.639100   1.488070   2.723230  38.462100  -0.001004   0.001158  25.615800  -0.007114   0.003848  36.650900  -0.164928  -0.219911  54.976800  -0.004284   0.011191  36.614600   0.001492   0.004137   3.241960   7.438160   4.925270   0.816664   0.231616   7.812030  -1.647360  -3.304710  -0.202067  -0.000000   0.000000   0.000000   1.756210   2.185620  -4.815210   1.683730   4.231290  -6.357110  -3.751310  -1.864960  -1.827080  -0.000000   0.000000   0.000000
 -1.731770  89.546200   0.560075  -2.570760  -3.887580   1.958930   1.810900   4.070370  -1.242400   3.724130   8.098280  -2.623380  -0.081863  -0.351460  -0.000296  -0.129625  -0.703867   7.898930  -8.444740   3.406550  -1.148180 -68.832300  13.952800  -8.775940  -3.137990 -12.755600 -10.249400   2.208980  -4.989230   8.691260  43.834700  30.320600 -66.307700 -19.932200   0.003050   0.005500  -4.966100   0.001515  -0.002678 -30.599200   5.215100  -8.737880 -25.361700   0.001466   0.006094 -17.753200   0.000998  -0.000282 -27.772200   1.109820  -2.105570 -30.790300   0.001154   0.000393 -20.506300  -0.011189  -0.001905 -27.285600  -2.313720   4.475390 -28.609400  -0.002398  -0.004373 -19.053800  -0.002385  -0.002652 -27.137400  -2.361210   4.595350 -40.848300  -0.001231  -0.011142 -27.205000  -0.003260  -0.004926   7.201030   0.142671  11.767200  68.093100   5.118930   1.598270   0.332048 -11.387100   7.978250 -10.521700 -12.000600   5.534100 -48.944800  39.303300  80.095600  16.198200   0.003443  -0.008467   3.099110   0.005015  -0.005754  32.052300   8.042220  12.595100  26.952000   0.004894  -0.001846  18.866400  -0.001214   0.002511  28.281700   4.214190   7.776960  36.992600   0.006770   0.002819  24.637100   0.002618  -0.007740  28.638100   1.495780   2.737270  38.481000  -0.001021   0.001159  25.628400  -0.007105   0.003829  36.662600  -0.164927  -0.221558  54.994400  -0.004276   0.011194  36.626200   0.001509   0.004137   3.242280   7.441570   4.917830   0.816803   0.246449   7.811830  -1.648390  -3.296400  -0.209513   0.000000   0.000000   0.000000   1.756780   2.194350  -4.815190   1.685120   4.239000  -6.359330  -3.751670  -1.861160  -1.840500   0.000000   0.000000  -0.000000
 -1.731870  89.546200   0.544217  -2.569680  -3.905360   1.979370   1.810640   4.079400  -1.235360   3.723380   8.116580  -2.609560  -0.077023  -0.351390  -0.000318  -0.124660  -0.703821   7.909400  -8.440680   3.406540  -1.148210 -68.853400  13.927600  -8.782370  -3.127660 -12.664700 -10.470100   2.256200  -5.019500   8.660060  43.858100  30.338100 -66.332900 -19.909500   0.003000   0.005496  -4.955250   0.001492  -0.002677 -30.564800   5.272950  -8.843110 -25.340200   0.001465   0.006083 -17.738100   0.000997  -0.000283 -27.771800   1.117130  -2.119680 -30.774000   0.001166   0.000386 -20.495500  -0.011201  -0.001927 -27.286900  -2.306450   4.461580 -28.601700  -0.002415  -0.004406 -19.047800  -0.002373  -0.002607 -27.168500  -2.357400   4.583520 -40.894400  -0.001220  -0.011143 -27.235600  -0.003247  -0.004856   7.200850   0.142835  11.772900  68.093100   5.164180   1.620090   0.329409 -11.385400   8.043590 -10.590000 -11.990800   5.548870 -49.016100  39.356000  80.166100  16.174900   0.003382  -0.008477   3.087450   0.005037  -0.008190  32.053200   8.046420  12.600400  26.953800   0.004911  -0.001827  18.867600  -0.001202   0.002526  28.280900   4.218350   7.784820  36.985400   0.006748   0.002828  24.632200   0.002633  -0.007749  28.637100   1.505070   2.754340  38.490100  -0.001047   0.001157  25.634400  -0.007090   0.003802  36.668300  -0.165806  -0.223301  55.003000  -0.004268   0.011202  36.632000   0.001535   0.004136   3.243900   7.424210   4.914150   0.816668   0.297858   7.807540  -1.651650  -3.308290  -0.222242   0.000000   0.000000   0.000000   1.757410   2.203380  -4.814470   1.686460   4.241530  -6.368840  -3.751810  -1.856740  -1.850000  -0.000000   0.000000   0.000000
